<?xml version="1.0" encoding="UTF-8" standalone="no"?>
<svg viewBox="0 0 912 620" version="1.1" xmlns="http://www.w3.org/2000/svg" xmlns:xlink="http://www.w3.org/1999/xlink">
    <title>Set your site free</title>
    <defs></defs>
    <g id="devices" stroke="none" stroke-width="1" fill="none" fill-rule="evenodd">
        <g id="device-7" transform="translate(654.952909, 325.975610)">
            <path d="M192.497784,237.878825 C192.497784,244.233476 186.885873,249.390077 179.956371,249.390077 L12.9141274,249.390077 C5.99459834,249.390077 0.390166205,244.233476 0.390166205,237.878825 L0.390166205,12.1314919 C0.390166205,5.77060163 5.99459834,0.61899187 12.9141274,0.61899187 L179.956371,0.61899187 C186.885873,0.61899187 192.497784,5.77060163 192.497784,12.1314919 L192.497784,237.878825 L192.497784,237.878825 Z" id="Stroke-3" stroke="#54ABBD" stroke-width="5"></path>
            <path d="M102.705956,228.482878 C102.705956,231.9385 99.9062327,234.751419 96.4495845,234.751419 C92.9929363,234.751419 90.1844875,231.9385 90.1844875,228.482878 C90.1844875,225.016024 92.9929363,222.213089 96.4495845,222.213089 C99.9062327,222.213089 102.705956,225.016024 102.705956,228.482878" id="Fill-4" fill="#54ABBD"></path>
        </g>
        <g id="device-6" transform="translate(354.290859, 340.951220)" stroke="#54ABBD" stroke-width="5">
            <path d="M-0.724515235,-0.258329268 L259.845429,-0.258329268 L259.845429,195.384285 L-0.724515235,195.384285 L-0.724515235,-0.258329268 Z" id="Path"></path>
            <path d="M92.3519391,195.384285 L166.777701,195.384285 L166.777701,237.311 L92.3519391,237.311 L92.3519391,195.384285 Z" id="Path"></path>
            <path d="M62.0959834,237.311 L194.695152,237.311 L62.0959834,237.311 Z" id="Path"></path>
        </g>
        <g id="device-5" transform="translate(2.875346, 437.292683)" stroke="#54ABBD" stroke-width="5">
            <path d="M316.810969,155.556673 L316.810969,155.556673 L316.810969,-0.336403331 L21.9998054,-0.336403331 L21.9998054,155.556673" id="Path"></path>
            <rect id="Rectangle-1" x="0" y="154.514703" width="339.260543" height="25.1926145"></rect>
            <path d="M137.019444,166.766974 L206.994896,166.766974 L137.019444,166.766974 Z" id="Path"></path>
        </g>
        <g id="device-4" transform="translate(126.421053, 229.882114)" stroke="#54ABBD" stroke-width="5">
            <path d="M151.034211,76.6189634 C151.034211,83.9707398 145.260249,89.9335285 138.142521,89.9335285 L13.9487535,89.9335285 C6.82354571,89.9335285 1.04958449,83.9707398 1.04958449,76.6189634 L1.04958449,13.3607398 C1.04958449,6.01270732 6.82354571,0.0486707317 13.9487535,0.0486707317 L138.142521,0.0486707317 C145.260249,0.0486707317 151.034211,6.01270732 151.034211,13.3607398 L151.034211,76.6189634 L151.034211,76.6189634 Z" id="Path"></path>
            <path d="M16.5452909,103.656179 L143.581163,103.656179 L143.581163,159.87337 L16.5452909,159.87337 L16.5452909,103.656179 Z" id="Path"></path>
            <path d="M1.04958449,76.7524959 L1.04958449,160.731972 C1.04958449,168.268447 6.96939058,174.371008 14.2728532,174.371008 L181.212881,174.371008 C188.526316,174.371008 194.444875,168.268447 194.444875,160.731972 L194.444875,90.4801382 C194.444875,82.9424146 188.526316,76.827374 181.212881,76.827374 L175.669529,76.8111504 L152.793075,76.8111504" id="Path"></path>
        </g>
        <g id="device-3" transform="translate(504.875346, 82.621951)" stroke="#54ABBD" stroke-width="5">
            <path d="M377.266482,185.240805 L377.266482,185.240805 L377.266482,-0.400597561 L26.1979224,-0.400597561 L26.1979224,185.240805" id="Path"></path>
            <rect id="Rectangle-1" x="0" y="184" width="404" height="30"></rect>
            <path d="M163.166205,198.590313 L246.494737,198.590313 L163.166205,198.590313 Z" id="Path"></path>
        </g>
        <g id="device-2" transform="translate(355.783934, 120.060976)">
            <path d="M112.472576,171.997374 C112.472576,176.053268 109.184211,179.346654 105.124238,179.346654 L7.27853186,179.346654 C3.23975069,179.346654 -0.0448753463,176.053268 -0.0448753463,171.997374 L-0.0448753463,7.92958537 C-0.0448753463,3.87493902 3.23975069,0.580304878 7.27853186,0.580304878 L105.124238,0.580304878 C109.184211,0.580304878 112.472576,3.87493902 112.472576,7.92958537 L112.472576,171.997374 L112.472576,171.997374 Z" id="Stroke-1" stroke="#54ABBD" stroke-width="5"></path>
            <path d="M63.5459834,157.308797 C63.5459834,161.358451 60.2663435,164.658077 56.2101108,164.658077 C52.165097,164.658077 48.8817175,161.358451 48.8817175,157.308797 C48.8817175,153.244167 52.165097,149.959516 56.2101108,149.959516 C60.2663435,149.959516 63.5459834,153.244167 63.5459834,157.308797" id="Fill-2" fill="#54ABBD"></path>
        </g>
        <g id="device-1" transform="translate(72.819945, 4.000000)">
            <path d="M11.9119114,191.72774 C5.56578947,191.72774 0.413850416,186.108142 0.413850416,179.171939 L0.413850416,11.9380569 C0.413850416,5.00934146 5.56578947,-0.600272358 11.9119114,-0.600272358 L237.400554,-0.600272358 C243.754155,-0.600272358 248.899861,5.00934146 248.899861,11.9380569 L248.899861,179.171939 C248.899861,186.108142 243.754155,191.72774 237.400554,191.72774 L11.9119114,191.72774 L11.9119114,191.72774 Z" id="Stroke-5" stroke="#54ABBD" stroke-width="5"></path>
            <path d="M21.298338,101.83165 C17.8454294,101.83165 15.0357341,99.0287154 15.0357341,95.5681016 C15.0357341,92.1087358 17.8454294,89.2958171 21.298338,89.2958171 C24.7599723,89.2958171 27.5596953,92.1087358 27.5596953,95.5681016 C27.5596953,99.0287154 24.7599723,101.83165 21.298338,101.83165" id="Fill-8" fill="#54ABBD"></path>
        </g>
    </g>
</svg>