<?xml version="1.0" encoding="UTF-8" standalone="no"?>
<svg width="118px" height="184px" viewBox="0 0 118 184" version="1.1" xmlns="http://www.w3.org/2000/svg" xmlns:xlink="http://www.w3.org/1999/xlink" xmlns:sketch="http://www.bohemiancoding.com/sketch/ns">
    <title>device-2</title>
    <description>Created with Sketch (http://www.bohemiancoding.com/sketch)</description>
    <defs></defs>
    <g id="Page-1" stroke="none" stroke-width="1" fill="none" fill-rule="evenodd" sketch:type="MSPage">
        <g id="device-2" sketch:type="MSLayerGroup" transform="translate(2.783934, 2.060976)">
            <path d="M112.472576,171.997374 C112.472576,176.053268 109.184211,179.346654 105.124238,179.346654 L7.27853186,179.346654 C3.23975069,179.346654 -0.0448753463,176.053268 -0.0448753463,171.997374 L-0.0448753463,7.92958537 C-0.0448753463,3.87493902 3.23975069,0.580304878 7.27853186,0.580304878 L105.124238,0.580304878 C109.184211,0.580304878 112.472576,3.87493902 112.472576,7.92958537 L112.472576,171.997374 L112.472576,171.997374 Z" id="Stroke-1" stroke="#54ABBD" stroke-width="5" sketch:type="MSShapeGroup"></path>
            <path d="M63.5459834,157.308797 C63.5459834,161.358451 60.2663435,164.658077 56.2101108,164.658077 C52.165097,164.658077 48.8817175,161.358451 48.8817175,157.308797 C48.8817175,153.244167 52.165097,149.959516 56.2101108,149.959516 C60.2663435,149.959516 63.5459834,153.244167 63.5459834,157.308797" id="Fill-2" fill="#54ABBD" sketch:type="MSShapeGroup"></path>
        </g>
    </g>
</svg>