<?xml version="1.0" encoding="UTF-8" standalone="no"?>
<svg width="200px" height="180px" viewBox="0 0 200 180" version="1.1" xmlns="http://www.w3.org/2000/svg" xmlns:xlink="http://www.w3.org/1999/xlink" xmlns:sketch="http://www.bohemiancoding.com/sketch/ns">
    <title>device-4</title>
    <description>Created with Sketch (http://www.bohemiancoding.com/sketch)</description>
    <defs></defs>
    <g id="Page-1" stroke="none" stroke-width="1" fill="none" fill-rule="evenodd" sketch:type="MSPage">
        <g id="device-4" sketch:type="MSLayerGroup" transform="translate(2.421053, 2.882114)" stroke="#54ABBD" stroke-width="5">
            <path d="M151.034211,76.6189634 C151.034211,83.9707398 145.260249,89.9335285 138.142521,89.9335285 L13.9487535,89.9335285 C6.82354571,89.9335285 1.04958449,83.9707398 1.04958449,76.6189634 L1.04958449,13.3607398 C1.04958449,6.01270732 6.82354571,0.0486707317 13.9487535,0.0486707317 L138.142521,0.0486707317 C145.260249,0.0486707317 151.034211,6.01270732 151.034211,13.3607398 L151.034211,76.6189634 L151.034211,76.6189634 Z" id="Path" sketch:type="MSShapeGroup"></path>
            <path d="M16.5452909,103.656179 L143.581163,103.656179 L143.581163,159.87337 L16.5452909,159.87337 L16.5452909,103.656179 Z" id="Path" sketch:type="MSShapeGroup"></path>
            <path d="M1.04958449,76.7524959 L1.04958449,160.731972 C1.04958449,168.268447 6.96939058,174.371008 14.2728532,174.371008 L181.212881,174.371008 C188.526316,174.371008 194.444875,168.268447 194.444875,160.731972 L194.444875,90.4801382 C194.444875,82.9424146 188.526316,76.827374 181.212881,76.827374 L175.669529,76.8111504 L152.793075,76.8111504" id="Path" sketch:type="MSShapeGroup"></path>
        </g>
    </g>
</svg>