<?xml version="1.0" encoding="UTF-8" standalone="no"?>
<svg width="255px" height="199px" viewBox="0 0 255 199" version="1.1" xmlns="http://www.w3.org/2000/svg" xmlns:xlink="http://www.w3.org/1999/xlink" xmlns:sketch="http://www.bohemiancoding.com/sketch/ns">
    <title>device-1</title>
    <description>Created with Sketch (http://www.bohemiancoding.com/sketch)</description>
    <defs></defs>
    <g id="Page-1" stroke="none" stroke-width="1" fill="none" fill-rule="evenodd" sketch:type="MSPage">
        <g id="device-1" sketch:type="MSLayerGroup" transform="translate(2.819945, 4.000000)">
            <path d="M11.9119114,191.72774 C5.56578947,191.72774 0.413850416,186.108142 0.413850416,179.171939 L0.413850416,11.9380569 C0.413850416,5.00934146 5.56578947,-0.600272358 11.9119114,-0.600272358 L237.400554,-0.600272358 C243.754155,-0.600272358 248.899861,5.00934146 248.899861,11.9380569 L248.899861,179.171939 C248.899861,186.108142 243.754155,191.72774 237.400554,191.72774 L11.9119114,191.72774 L11.9119114,191.72774 Z" id="Stroke-5" stroke="#54ABBD" stroke-width="5" sketch:type="MSShapeGroup"></path>
            <path d="M21.298338,101.83165 C17.8454294,101.83165 15.0357341,99.0287154 15.0357341,95.5681016 C15.0357341,92.1087358 17.8454294,89.2958171 21.298338,89.2958171 C24.7599723,89.2958171 27.5596953,92.1087358 27.5596953,95.5681016 C27.5596953,99.0287154 24.7599723,101.83165 21.298338,101.83165" id="Fill-8" fill="#54ABBD" sketch:type="MSShapeGroup"></path>
        </g>
    </g>
</svg>