<?xml version="1.0" encoding="UTF-8" standalone="no"?>
<svg width="198px" height="254px" viewBox="0 0 198 254" version="1.1" xmlns="http://www.w3.org/2000/svg" xmlns:xlink="http://www.w3.org/1999/xlink" xmlns:sketch="http://www.bohemiancoding.com/sketch/ns">
    <title>device-7</title>
    <description>Created with Sketch (http://www.bohemiancoding.com/sketch)</description>
    <defs></defs>
    <g id="Page-1" stroke="none" stroke-width="1" fill="none" fill-rule="evenodd" sketch:type="MSPage">
        <g id="device-7" sketch:type="MSLayerGroup" transform="translate(2.952909, 1.975610)">
            <path d="M192.497784,237.878825 C192.497784,244.233476 186.885873,249.390077 179.956371,249.390077 L12.9141274,249.390077 C5.99459834,249.390077 0.390166205,244.233476 0.390166205,237.878825 L0.390166205,12.1314919 C0.390166205,5.77060163 5.99459834,0.61899187 12.9141274,0.61899187 L179.956371,0.61899187 C186.885873,0.61899187 192.497784,5.77060163 192.497784,12.1314919 L192.497784,237.878825 L192.497784,237.878825 Z" id="Stroke-3" stroke="#54ABBD" stroke-width="5" sketch:type="MSShapeGroup"></path>
            <path d="M102.705956,228.482878 C102.705956,231.9385 99.9062327,234.751419 96.4495845,234.751419 C92.9929363,234.751419 90.1844875,231.9385 90.1844875,228.482878 C90.1844875,225.016024 92.9929363,222.213089 96.4495845,222.213089 C99.9062327,222.213089 102.705956,225.016024 102.705956,228.482878" id="Fill-4" fill="#54ABBD" sketch:type="MSShapeGroup"></path>
        </g>
    </g>
</svg>